<?xml version="1.0" encoding="utf-8"?>
<!-- Generator: Adobe Illustrator 22.0.1, SVG Export Plug-In . SVG Version: 6.00 Build 0)  -->
<svg version="1.1" id="레이어_1" xmlns="http://www.w3.org/2000/svg" xmlns:xlink="http://www.w3.org/1999/xlink" x="0px"
	 y="0px" viewBox="0 0 430 250" style="enable-background:new 0 0 430 250;" xml:space="preserve">
<style type="text/css">
	.st0{fill:#FFFFFF;}
</style>
<g>
	<polygon class="st0" points="73.2,68.3 51.4,68.3 51.4,166.1 122,166.1 122,146.8 73.2,146.8 	"/>
	<rect x="126.5" y="95.8" class="st0" width="21.4" height="70.6"/>
	<path class="st0" d="M137.2,61.8c-3.8,0-6.9,1.2-9.4,3.7c-2.5,2.5-3.7,5.6-3.7,9.4c0,3.8,1.2,6.9,3.7,9.4c2.5,2.5,5.6,3.7,9.4,3.7
		c3.8,0,6.9-1.2,9.4-3.7c2.5-2.5,3.7-5.6,3.7-9.4c0-3.8-1.2-6.9-3.7-9.4C144,63,140.9,61.8,137.2,61.8z"/>
	<path class="st0" d="M213.4,97.9c-4.2-2.5-9-3.8-14.4-3.8c-8.7,0-15.3,3-19.7,8.9v-7.2h-21.4v70.3h21.4V130c0-5.4,1.2-9.7,3.6-12.8
		c2.4-3.1,5.7-4.7,9.8-4.7c4,0,7.1,1.4,9.2,4.3c2.1,2.8,3.2,6.9,3.2,12.3v37.1h21.4v-40.7c0-6.4-1.1-12-3.4-16.7
		C220.7,104,217.5,100.4,213.4,97.9z"/>
	<polygon class="st0" points="304.8,95.8 281,95.8 256.2,124.4 256.2,65.3 234.8,65.3 234.8,166.1 256.2,166.1 256.2,149.9 
		264.7,140.3 281.9,166.1 306.2,166.1 277.8,125.8 	"/>
	<path class="st0" d="M365.9,147.6l14-14.5c5.8-5.9,10.2-11,13.4-15.2c3.2-4.2,5.4-8,6.7-11.3c1.3-3.3,2-6.7,2-10.3
		c0-5.9-1.4-11.2-4.2-15.8c-2.8-4.6-6.8-8.3-12.1-10.9c-5.2-2.6-11.5-4-18.7-4c-6.8,0-12.9,1.5-18.2,4.4c-5.3,2.9-9.5,6.9-12.5,12.1
		c-3,5.1-4.5,10.8-4.5,17.2h21.5c0-4,1.2-7.4,3.7-10.3c2.4-2.9,5.8-4.3,10-4.3c4.6,0,7.9,1.1,10.1,3.2c2.2,2.1,3.3,5.1,3.3,8.8
		c0,3-1,6.4-3.1,10c-2.1,3.6-5.9,8.3-11.4,14l-32,33v12.5h70v-18.5H365.9z"/>
</g>
</svg>
