<?xml version="1.0" encoding="utf-8"?>
<!-- Generator: Adobe Illustrator 22.0.1, SVG Export Plug-In . SVG Version: 6.00 Build 0)  -->
<svg version="1.1" id="레이어_1" xmlns="http://www.w3.org/2000/svg" xmlns:xlink="http://www.w3.org/1999/xlink" x="0px"
	 y="0px" viewBox="0 0 210 123" style="enable-background:new 0 0 210 123;" xml:space="preserve">
<style type="text/css">
	.st0{fill:#FFFFFF;}
</style>
<g>
	<polygon class="st0" points="36,41 12.6,41 12.6,3.5 2.2,3.5 2.2,50.3 36,50.3 	"/>
	<rect x="38.1" y="16.6" class="st0" width="10.2" height="33.8"/>
	<path class="st0" d="M43.2,12.9c1.8,0,3.3-0.6,4.5-1.8c1.2-1.2,1.8-2.7,1.8-4.5c0-1.8-0.6-3.3-1.8-4.5c-1.2-1.2-2.7-1.8-4.5-1.8
		c-1.8,0-3.3,0.6-4.5,1.8C37.6,3.3,37,4.8,37,6.6c0,1.8,0.6,3.3,1.8,4.5C39.9,12.3,41.4,12.9,43.2,12.9z"/>
	<path class="st0" d="M86,50.3V30.8c0-3.1-0.5-5.7-1.6-8c-1.1-2.3-2.6-4-4.6-5.2c-2-1.2-4.3-1.8-6.9-1.8c-4.2,0-7.3,1.4-9.4,4.2
		v-3.4H53.2v33.7h10.2V33c0-2.6,0.6-4.7,1.7-6.1c1.1-1.5,2.7-2.2,4.7-2.2c1.9,0,3.4,0.7,4.4,2c1,1.4,1.5,3.3,1.5,5.9v17.7H86z"/>
	<polygon class="st0" points="100.2,42.5 104.3,37.9 112.5,50.3 124.1,50.3 110.5,31 123.5,16.6 112.1,16.6 100.2,30.3 100.2,2 
		90,2 90,50.3 100.2,50.3 	"/>
	<path class="st0" d="M26.2,77.5c-2.1-2.8-5.3-4.2-9.6-4.2c-3.2,0-6,0.7-8.5,2.2C5.5,77,3.6,79,2.2,81.6c-1.4,2.6-2.1,5.6-2.1,8.9
		c0,3.3,0.7,6.2,2.1,8.8c1.4,2.6,3.3,4.6,5.8,6.1c2.5,1.5,5.3,2.2,8.5,2.2c4.3,0,7.5-1.4,9.6-4.2v3.6c0,2.1-0.7,3.8-2,5.1
		c-1.3,1.3-3,1.9-5.2,1.9c-3.6,0-5.7-1.2-6.3-3.6H2.5c0.4,2.3,1.3,4.3,2.6,6.1c1.4,1.8,3.2,3.3,5.6,4.4c2.4,1.1,5.1,1.6,8.4,1.6
		c3.3,0,6.3-0.7,8.9-2c2.6-1.3,4.7-3.1,6.2-5.5c1.5-2.4,2.2-5,2.2-8V74H26.2V77.5z M24.1,96.8c-1.5,1.6-3.5,2.4-6,2.4
		c-2.4,0-4.3-0.8-5.8-2.4c-1.5-1.6-2.2-3.7-2.2-6.2c0-2.5,0.7-4.6,2.2-6.2c1.5-1.6,3.4-2.4,5.8-2.4c2.5,0,4.5,0.8,6,2.4
		c1.5,1.6,2.2,3.7,2.2,6.2C26.3,93.1,25.6,95.2,24.1,96.8z"/>
	<path class="st0" d="M65.5,77.5c-2.1-2.8-5.3-4.2-9.6-4.2c-3.2,0-6,0.8-8.5,2.3c-2.5,1.5-4.4,3.6-5.8,6.3c-1.4,2.7-2.1,5.7-2.1,9.1
		c0,3.4,0.7,6.4,2.1,9.1c1.4,2.7,3.3,4.8,5.8,6.3c2.5,1.5,5.3,2.3,8.5,2.3c4.3,0,7.5-1.4,9.6-4.2v3.4h10.2V74H65.5V77.5z M63.4,97.3
		c-1.5,1.7-3.5,2.5-6,2.5c-2.4,0-4.3-0.8-5.8-2.5c-1.5-1.7-2.2-3.8-2.2-6.4c0-2.6,0.7-4.7,2.2-6.4c1.5-1.7,3.4-2.5,5.8-2.5
		c2.5,0,4.5,0.8,6,2.5c1.5,1.7,2.2,3.8,2.2,6.4C65.7,93.5,64.9,95.6,63.4,97.3z"/>
	<polygon class="st0" points="94.5,64 84.3,64 84.3,74 77.6,74 77.6,82.8 84.3,82.8 84.3,107.7 94.5,107.7 94.5,82.8 101.2,82.8 
		101.2,74 94.5,74 	"/>
	<path class="st0" d="M129.6,75c-2-1.2-4.3-1.8-6.9-1.8c-4.2,0-7.3,1.4-9.4,4.2v-18h-10.2v48.2h10.2V90.4c0-2.6,0.6-4.7,1.7-6.1
		c1.1-1.5,2.7-2.2,4.7-2.2c1.9,0,3.4,0.7,4.4,2c1,1.4,1.5,3.3,1.5,5.9v17.7h10.2V88.2c0-3.1-0.5-5.7-1.6-8
		C133.1,78,131.6,76.2,129.6,75z"/>
	<path class="st0" d="M164.7,75.5c-2.7-1.5-5.7-2.3-9-2.3c-3.4,0-6.4,0.8-9,2.3c-2.7,1.5-4.7,3.6-6.2,6.3c-1.5,2.7-2.2,5.7-2.2,9.1
		c0,3.4,0.7,6.4,2.2,9.1c1.5,2.7,3.6,4.8,6.2,6.3c2.7,1.5,5.7,2.3,9,2.3c2.7,0,5.2-0.5,7.5-1.4c2.3-0.9,4.2-2.2,5.8-3.8
		c1.6-1.6,2.6-3.5,3.2-5.7h-10.3c-0.4,0.8-1.2,1.4-2.3,1.9c-1.1,0.5-2.4,0.7-3.9,0.7c-1.9,0-3.5-0.5-4.8-1.6
		c-1.3-1.1-2.1-2.6-2.5-4.5H173c0.2-1.1,0.2-2.2,0.2-3.3c0-3.4-0.7-6.4-2.2-9.1C169.5,79.1,167.4,77,164.7,75.5z M148.3,87.5
		c0.4-2,1.3-3.6,2.5-4.6c1.3-1.1,2.9-1.6,4.9-1.6c2,0,3.6,0.5,4.9,1.6c1.3,1.1,2.2,2.6,2.6,4.6H148.3z"/>
	<path class="st0" d="M200.4,73.8c-1.1-0.4-2.6-0.6-4.4-0.6c-4.2,0-7.3,1.4-9.4,4.2V74h-10.2v33.7h10.2V90.5c0-2.6,0.8-4.6,2.3-6
		c1.5-1.5,3.7-2.2,6.4-2.2c2,0,3.8,0.4,5.2,1.1L200.4,73.8z"/>
	<path class="st0" d="M208.4,98.3c-1.1-1.1-2.4-1.6-4.1-1.6c-1.6,0-3,0.5-4.1,1.6c-1.1,1.1-1.6,2.5-1.6,4.1c0,1.6,0.5,3,1.6,4.1
		c1.1,1.1,2.5,1.6,4.1,1.6c1.6,0,3-0.5,4.1-1.6c1.1-1.1,1.6-2.5,1.6-4.1C210,100.8,209.5,99.4,208.4,98.3z"/>
</g>
</svg>
