<?xml version="1.0" encoding="utf-8"?>
<!-- Generator: Adobe Illustrator 22.0.1, SVG Export Plug-In . SVG Version: 6.00 Build 0)  -->
<svg version="1.0" id="레이어_1" xmlns="http://www.w3.org/2000/svg" xmlns:xlink="http://www.w3.org/1999/xlink" x="0px"
	 y="0px" viewBox="0 0 212 212" style="enable-background:new 0 0 212 212;" xml:space="preserve">
<style type="text/css">
	.st0{fill:#FFFFFF;}
</style>
<g>
	<g>
		<circle cx="106" cy="106" r="104.9"/>
	</g>
	<path class="st0" d="M163.5,89.4l-44.9-44.9c-0.2-0.2-0.5-0.4-0.8-0.7c-2.9-3.3-7.1-5.4-11.8-5.4s-8.9,2.1-11.8,5.4
		c-0.3,0.2-0.6,0.4-0.8,0.7L48.5,89.4c-6.2,6.2-6.2,16.3,0,22.5c6.2,6.2,16.3,6.2,22.5,0l19.2-19.2v1.4v23.8v27.8v11.9
		c0,8.7,7.1,15.9,15.9,15.9s15.9-7.1,15.9-15.9v-11.9v-27.8V94.1v-1.4l19.2,19.2c6.2,6.2,16.3,6.2,22.5,0
		C169.7,105.7,169.7,95.6,163.5,89.4z"/>
</g>
</svg>
