<svg xmlns="http://www.w3.org/2000/svg" viewBox="0 0 512 505.39"><defs><style>.cls-1{fill:#fff;}</style></defs><title>aaa</title><g id="레이어_2" data-name="레이어 2"><g id="레이어_1-2" data-name="레이어 1"><path class="cls-1" d="M272.54,41l-72.76,72.76A140.49,140.49,0,0,0,178,142.27a155.46,155.46,0,0,1,72.16.52l11.53-11.53,50.54-50.54A84.19,84.19,0,0,1,431.28,199.78l-54.5,54.5-11.86,11.85-6.4,6.41c-1.94,1.94-4,3.74-6,5.46a83.93,83.93,0,0,1-55.55,19.06A86,86,0,0,1,283,295.63a83.65,83.65,0,0,1-67.56-73.26,69.89,69.89,0,0,0-52,20.4l-1.1,1.1A140.67,140.67,0,0,0,257.61,347a142.7,142.7,0,0,0,15.86,3.89,141.11,141.11,0,0,0,69-4.64,139.22,139.22,0,0,0,55.7-34L471,239.46C525.68,184.75,525.68,95.74,471,41S327.25-13.68,272.54,41Z"/><path class="cls-1" d="M261.85,362.59l-11.53,11.54-50.54,50.54A84.19,84.19,0,0,1,80.72,305.61l54.5-54.5,11.86-11.86,6.4-6.4c1.94-1.94,4-3.75,6-5.46A83.94,83.94,0,0,1,296.58,283a69.9,69.9,0,0,0,52-20.41l1.1-1.1a140.19,140.19,0,0,0-197.62-95.37A138.53,138.53,0,0,0,135,175.78a140.61,140.61,0,0,0-21.22,17.38L41,265.92c-54.71,54.71-54.71,143.73,0,198.43s143.72,54.71,198.43,0l72.76-72.75A141.43,141.43,0,0,0,323,379.4a140,140,0,0,0,11-16.29A155.19,155.19,0,0,1,261.85,362.59Z"/></g></g></svg>