<svg xmlns="http://www.w3.org/2000/svg" viewBox="0 0 512 490.36"><defs><style>.cls-1{fill:#ff0;}</style></defs><title>ystar_3</title><g id="레이어_2" data-name="레이어 2"><g id="레이어_1-2" data-name="레이어 1"><path class="cls-1" d="M288.7,23.25l38.89,111.9a34.61,34.61,0,0,0,32,23.24L478,160.81c32.81.67,46.36,42.36,20.21,62.19l-94.41,71.57a34.62,34.62,0,0,0-12.22,37.61l34.31,113.39C435.42,477,400,502.76,373,484l-97.24-67.67a34.61,34.61,0,0,0-39.54,0L139,484c-26.94,18.75-62.41-7-52.91-38.44l34.31-113.39a34.62,34.62,0,0,0-12.22-37.61L13.76,223C-12.39,203.17,1.16,161.48,34,160.81l118.45-2.42a34.61,34.61,0,0,0,32-23.24L223.3,23.25C234.08-7.75,277.92-7.75,288.7,23.25Z"/></g></g></svg>